<svg xmlns="http://www.w3.org/2000/svg" width="50" height="57" viewBox="0 0 50 57">
  <metadata><?xpacket begin="﻿" id="W5M0MpCehiHzreSzNTczkc9d"?>
<x:xmpmeta xmlns:x="adobe:ns:meta/" x:xmptk="Adobe XMP Core 5.6-c140 79.160451, 2017/05/06-01:08:21        ">
   <rdf:RDF xmlns:rdf="http://www.w3.org/1999/02/22-rdf-syntax-ns#">
      <rdf:Description rdf:about=""/>
   </rdf:RDF>
</x:xmpmeta>
                                                                                                    
                                                                                                    
                                                                                                    
                                                                                                    
                                                                                                    
                                                                                                    
                                                                                                    
                                                                                                    
                                                                                                    
                                                                                                    
                                                                                                    
                                                                                                    
                                                                                                    
                                                                                                    
                                                                                                    
                                                                                                    
                                                                                                    
                                                                                                    
                                                                                                    
                                                                                                    
                           
<?xpacket end="w"?></metadata>
<defs>
    <style>
      .cls-1 {
        fill: #fff;
        fill-rule: evenodd;
      }
    </style>
  </defs>
  <path id="Composite_Path" data-name="Composite Path" class="cls-1" d="M525.936,2607.31l-0.118-.16c0.816-1.4,1.636-2.8,2.443-4.21a12.628,12.628,0,0,0,.646-1.27c0.452-1.06.878-2.13,1.316-3.2a2.4,2.4,0,0,0,.274-1.71,2.654,2.654,0,0,1,.409-2.23c0.112-.22.232-0.45,0.339-0.68a3.035,3.035,0,0,0,.012-2.75,4.79,4.79,0,0,1-.316-1.47c-0.067-.55-0.059-1.12-0.1-1.68a2.53,2.53,0,0,0-1.506-2.26,3.117,3.117,0,0,1-.669-0.34,1.576,1.576,0,0,0-1.5-.27c-0.968.26-1.922,0.58-2.882,0.87a4.908,4.908,0,0,0-2.485,1.79,5.942,5.942,0,0,1-3.127,2.13,9.627,9.627,0,0,0-4.435,2.61,6.1,6.1,0,0,1-1.939,1.56,1.948,1.948,0,0,0-.325.25l0.465,0.22c-0.931,1.18-2.288,1.64-3.553,2.3a4.328,4.328,0,0,1,.221-0.99c0.537-1.75,1.077-3.49,1.606-5.23a0.917,0.917,0,0,0-.1-1.04,3.633,3.633,0,0,0-.853,1.54,25.681,25.681,0,0,0-2.108,6.47,0.911,0.911,0,0,1-.185.45c-0.695.76-1.407,1.51-2.158,2.31-0.229-.59-0.432-1.2-0.7-1.77a0.851,0.851,0,0,1,.036-0.87c0.346-.58.661-1.18,1.05-1.73,1.171-1.65,2.373-3.27,3.557-4.91,0.17-.23.311-0.49,0.5-0.78a0.867,0.867,0,0,0-.968.07,4.638,4.638,0,0,0-.851.68c-0.813.92-1.633,1.85-2.375,2.83-0.654.87-1.208,1.81-1.83,2.76a2.139,2.139,0,0,1-.257-0.35,18.964,18.964,0,0,0-2.36-3.67,8.121,8.121,0,0,0-2.246-2.13,0.668,0.668,0,0,0-.829-0.13c-0.328,2.09-.634,4.17-0.986,6.25a48.551,48.551,0,0,1-1.059,5.54c-0.932,3.18-1.926,6.34-3.1,9.44a36.536,36.536,0,0,1-3.547,7.24,18.109,18.109,0,0,0-2.936,8.08c-0.147,1.35-.261,2.69-0.352,4.04a22.25,22.25,0,0,0,.778,7.59,3.12,3.12,0,0,0,1.761,2.11,18.8,18.8,0,0,0,6.446,1.38,12.7,12.7,0,0,0,4.563-1.01c4.325-1.41,8.017-3.95,11.565-6.72a24,24,0,0,0,4.58-5.24,25.419,25.419,0,0,0,3.2-5.52,4.249,4.249,0,0,1,1.908-2.33c0.121-.07.221-0.17,0.336-0.25a44.042,44.042,0,0,1,6.167-3.75,58.956,58.956,0,0,0,6.461-3.57,2.857,2.857,0,0,0,.812-0.83c0.407-.6.755-1.24,1.125-1.87a1.274,1.274,0,0,0,.23-0.44,0.716,0.716,0,0,0-.086-0.53,0.662,0.662,0,0,0-.526-0.05c-0.21.04-.4,0.21-0.606,0.24a29.264,29.264,0,0,1-6.928.47,1.929,1.929,0,0,1-.432-0.12,0.794,0.794,0,0,1,.12-0.2,19.089,19.089,0,0,1,4.11-2.88,0.581,0.581,0,0,0,.319-0.43,0.6,0.6,0,0,0-.349-0.39,2.412,2.412,0,0,0-.969-0.23,21.975,21.975,0,0,0-2.561.33C527.352,2606.82,526.649,2607.09,525.936,2607.31Zm1.241,7.69a1.054,1.054,0,0,1,.924-0.43A1.187,1.187,0,0,1,527.177,2615Zm-0.086.04a8.138,8.138,0,0,1-.766.49q-2.325,1.155-4.663,2.3a37.222,37.222,0,0,0-8.242,5.61,0.313,0.313,0,0,0-.116.19,71.973,71.973,0,0,1,7.133-4.11,37.752,37.752,0,0,0-5.779,7.05l0.585-.47,0.113,0.08c-0.383.56-.751,1.12-1.154,1.66-0.769,1.03-1.54,2.07-2.344,3.07a15.783,15.783,0,0,1-3.467,3.04c-1.4.97-2.713,2.09-4.179,2.95a31.315,31.315,0,0,1-8.268,3.43,9.634,9.634,0,0,1-3.739-.15,27.847,27.847,0,0,0,4.476-2.75,21.99,21.99,0,0,0,3.992-3.41l-0.09-.14a15.1,15.1,0,0,0-1.405.83c-1.929,1.4-3.84,2.82-5.758,4.23-0.474.35-.928,0.73-1.428,1.03a1.847,1.847,0,0,1-.959.2,12.4,12.4,0,0,0,3.663-3.37l-0.109-.14c-0.5.33-1,.67-1.488,1.01-0.85.59-1.692,1.2-2.543,1.79a1.586,1.586,0,0,1-1.856-.02l0.6-11.47c-1.129,3.11-1.031,6.39-1.433,9.62-0.04-.32-0.068-0.64-0.121-0.96a28.8,28.8,0,0,1,.283-9.48,18.985,18.985,0,0,1,2.943-7.65,38.416,38.416,0,0,0,4.1-8.93,61.244,61.244,0,0,0,2.506-11.43c0.176-1.2.326-2.4,0.51-3.59a14.2,14.2,0,0,0,.037-4.81c0.4,0.52.708,0.87,0.968,1.25a27.915,27.915,0,0,1,2.695,4.46c0.179,0.42.341,0.84,0.554,1.23a15.45,15.45,0,0,1,1.627,6.32c0.082,1.12.151,2.25,0.177,3.37a20.881,20.881,0,0,1-1.057,6.3c-0.642,2.21-1.415,4.38-2.127,6.57a1.688,1.688,0,0,0-.1.74,30.042,30.042,0,0,0,5.044-11.06l0.961,0.61-0.327,1.04a4.554,4.554,0,0,0,.446-0.18c0.121-.06.233-0.14,0.376-0.23,0.671,0.77.974,1.86,2.152,2.4a8.931,8.931,0,0,0-1.51-3.13l1.908-1.74,1.8,1.79c0.134-.71.134-0.71-0.818-2.62,0.618-.86,1.235-1.72,1.86-2.57a2.583,2.583,0,0,1,.348-0.37c0.74-.65,1.085-0.66,1.783.05,0.57,0.58,1.083,1.21,1.62,1.82a3.334,3.334,0,0,0,.628.61c-0.379-1.39-1.581-2.16-2.481-3.3,1.473-.75,2.129-2.24,3.132-3.41,0.879,0.46,1.846,1.97,2.569,4.01l-3.537,4.64c-0.494.65-1.019,1.27-1.478,1.94a1.472,1.472,0,0,1-.866.6,27.344,27.344,0,0,0-9.646,4.96,10.756,10.756,0,0,0-2.976,3.72,2.415,2.415,0,0,0-.277,1.56c0.542-.6,1.009-1.03,1.382-1.54,1.519-2.04,3.663-3.26,5.794-4.5a22,22,0,0,1,10.34-3.12c2.992-.12,5.953-0.57,8.924-0.9,1.574-.18,3.129-0.53,4.767-0.82-2.031,1.23-4.213,2.06-6.282,3.11-2.1,1.06-4.214,2.08-6.341,3.08s-4.271,1.94-6.382,3.01c0.579-.17,1.164-0.31,1.736-0.5a81.748,81.748,0,0,0,8.515-3.55c0.786-.37,1.56-0.77,2.348-1.13A5.521,5.521,0,0,1,527.091,2615.04Zm0.072-.02-0.072.02,0.057-.04h0.029Zm-4.715-6.97a12.046,12.046,0,0,0-.829-3.54l2.536-3.6,0.891,1.54a2.341,2.341,0,0,0-.235-1.68,1.549,1.549,0,0,1,.141-1.65c0.339-.51.611-1.07,0.944-1.66l0.538,0.5a2.988,2.988,0,0,0,.089-0.72,2.429,2.429,0,0,1,.449-1.66c0.373-.63.73-1.27,1.118-1.94l0.817,0.78a1.417,1.417,0,0,0-.1-1.27,1.378,1.378,0,0,1-.018-1.13c0.2-.54.308-1.12,0.456-1.68l-0.2-.1-1,1.42-0.859-1.1,1.559-3.3a0.65,0.65,0,0,1,.587.65c0.041,0.36.066,0.72,0.078,1.09a8.559,8.559,0,0,0,.479,2.89,1.626,1.626,0,0,1-.064,1.39c-0.191.37-.354,0.76-0.545,1.14a3.154,3.154,0,0,0-.352,2.35,1.855,1.855,0,0,1-.175,1.22,41.358,41.358,0,0,1-3.414,6.93c-1.158,1.86-2.326,3.71-3.476,5.57a1.041,1.041,0,0,1-.871.55c-0.976.07-1.951,0.16-2.926,0.25l-2.072.17c0.224-.33.376-0.57,0.554-0.8,0.726-.92,1.481-1.83,2.184-2.77,0.383-.51.667-1.1,1.025-1.64,0.23-.34.512-0.65,0.827-1.04l1.679,2.92Zm-1.084-4.39a8.831,8.831,0,0,0-2.553-4.29,6.577,6.577,0,0,1,2.424-2.24,3.306,3.306,0,0,1,1.437,1.33c1.2,1.67,1.193,1.08.294,3.01A4.372,4.372,0,0,1,521.364,2603.66Zm-7.148-4.78,2.865,1.16c-0.99,1.27-1.614,2.68-3,3.31l-3.646-1.87a8.957,8.957,0,0,1,.966-0.61A5.839,5.839,0,0,0,514.216,2598.88Zm-1.047,4.99-2.758,3.3a6.557,6.557,0,0,0-3.011-2.16l1.923-2.5Zm5.07-9.5,0.785-.47,0.919-.55a1.926,1.926,0,0,0,.193-0.16c1.187-.95,1.481-0.96,2.693-0.08,0.29,0.21.57,0.44,0.92,0.71a9.886,9.886,0,0,1-2.158,1.99Zm2.025,2.05-2.364,2.34-2.82-1.07,2.251-2.46Zm-10.8,11.58-2.065,1.87-1.376-.49c0-1.31,0-2.54.006-3.76a0.679,0.679,0,0,1,.243-0.06l-0.118.93,0.7-.67A6.263,6.263,0,0,1,509.469,2608Zm3.478-9.46a1.905,1.905,0,0,1-1.077.93,7.655,7.655,0,0,0-2.391,1.36,0.843,0.843,0,0,1-.585.22c-0.626-.09-1.242-0.26-1.981-0.43a9.919,9.919,0,0,1,2.232-2.18,0.493,0.493,0,0,1,.238-0.08A9.2,9.2,0,0,1,512.947,2598.54Zm2.2-5.12c1.257-1.9,3.12-2.77,5.221-1.61-1,.72-1.962,1.41-2.936,2.09a0.583,0.583,0,0,1-.46.09C516.389,2593.83,515.813,2593.63,515.151,2593.42Zm9.027,5.39-1.76-2.45,1.972-1.86a3.919,3.919,0,0,1,1.049,1.53,0.523,0.523,0,0,1,0,.4C525.036,2597.22,524.611,2598,524.178,2598.81Zm-12.62-1.76a9.751,9.751,0,0,0,2.562-2.41,0.669,0.669,0,0,1,.808-0.26c0.449,0.15.9,0.28,1.413,0.43a5.6,5.6,0,0,1-1.378,1.6,2.18,2.18,0,0,1-2.453.74A4.063,4.063,0,0,0,511.558,2597.05Zm17.165,10.75-2.831,2.59a0.615,0.615,0,0,1-.273.18,13.136,13.136,0,0,1-2,.11c0.583-.93.918-2.04,2.263-2.21a14.618,14.618,0,0,0,2.008-.57c0.263-.08.533-0.13,0.8-0.2Zm-5.972-15.99,1.878-2.13,1.439,1.03-1.592,2.33ZM505.6,2602.06a4.6,4.6,0,0,1,2.65.1c-0.49.88-.928,1.71-1.414,2.5a0.61,0.61,0,0,1-.552.19,0.658,0.658,0,0,1-.426-0.41C505.745,2603.68,505.689,2602.9,505.6,2602.06Zm20.911-12.1-1.49-.83c0.75-.81,1.441-1.56,2.143-2.31a0.659,0.659,0,0,1,.843-0.11c0.193,0.1.373,0.23,0.566,0.35Zm-0.3,5.14-1.1-1.49,1.489-2.15a2.291,2.291,0,0,1,.824,1.06,0.669,0.669,0,0,1-.054.53C527.025,2593.71,526.641,2594.36,526.218,2595.1Zm-6.083-4.5a25.219,25.219,0,0,1,2.171-1.48,1.691,1.691,0,0,1,1.116.13,8.046,8.046,0,0,1-1.777,1.75,0.755,0.755,0,0,1-.548-0.03A9.134,9.134,0,0,1,520.135,2590.6Zm5.794-3.56a19.286,19.286,0,0,1-1.867,1.7,3.3,3.3,0,0,1-1.336.15A3.954,3.954,0,0,1,525.929,2587.04Zm8.458,23.57a3.555,3.555,0,0,1-2.142,1.7l1.992-1.87ZM490.2,2638.6c0.957-.96,2.016-4.17,1.712-5.11A21.834,21.834,0,0,0,490.2,2638.6Zm-0.755.48c0.9-3.18.744-6.33,1.211-9.4a1.214,1.214,0,0,0-.065-0.4,0.106,0.106,0,0,0-.06-0.05,0.2,0.2,0,0,0-.078,0C489.818,2630.79,489.085,2637.56,489.443,2639.08Zm13.253-27.77c-0.381.5-4.448,11.25-4.507,11.9a0.843,0.843,0,0,0,.19-0.18,38.929,38.929,0,0,0,3.834-8.02,23.714,23.714,0,0,0,.673-2.69A1,1,0,0,0,502.7,2611.31Zm5.681,9.67c-1.86.85-8.4,8.47-8.784,10.18C502.975,2628.05,505.581,2624.44,508.377,2620.98Zm-7.785-7.58c-1.488,1.94-6.543,12.94-6.584,14.27C495.807,2626.26,499.757,2616.81,500.592,2613.4Zm12.613,2.77c-0.426.07-.671,0.1-0.912,0.15a8.971,8.971,0,0,0-2.858,1.37,34.986,34.986,0,0,0-6.576,5.59,16.113,16.113,0,0,0-2.9,3.79,1.49,1.49,0,0,0-.312,1.04c1.02-.93,1.991-1.89,2.911-2.89a58.2,58.2,0,0,1,8.031-7.37C511.37,2617.27,512.227,2616.79,513.205,2616.17Zm-7.833-16.59,0.223,0.07c0.28-.63.573-1.26,0.839-1.9,0.257-.62.493-1.25,0.729-1.87,0.517-1.37.525-1.43,0.332-2.11A33.613,33.613,0,0,0,505.372,2599.58Z" transform="translate(-486 -2585)"/>
</svg>
