<svg xmlns="http://www.w3.org/2000/svg" width="104.031" height="102.85" viewBox="0 0 104.031 102.85">
  <metadata><?xpacket begin="﻿" id="W5M0MpCehiHzreSzNTczkc9d"?>
<x:xmpmeta xmlns:x="adobe:ns:meta/" x:xmptk="Adobe XMP Core 5.6-c140 79.160451, 2017/05/06-01:08:21        ">
   <rdf:RDF xmlns:rdf="http://www.w3.org/1999/02/22-rdf-syntax-ns#">
      <rdf:Description rdf:about=""/>
   </rdf:RDF>
</x:xmpmeta>
                                                                                                    
                                                                                                    
                                                                                                    
                                                                                                    
                                                                                                    
                                                                                                    
                                                                                                    
                                                                                                    
                                                                                                    
                                                                                                    
                                                                                                    
                                                                                                    
                                                                                                    
                                                                                                    
                                                                                                    
                                                                                                    
                                                                                                    
                                                                                                    
                                                                                                    
                                                                                                    
                           
<?xpacket end="w"?></metadata>
<defs>
    <style>
      .cls-1 {
        fill: #fff;
        fill-rule: evenodd;
      }
    </style>
  </defs>
  <path id="Composite_Path" data-name="Composite Path" class="cls-1" d="M556.655,2585.24c-5.16-9.25-14.513-15.01-23.991-18.31a87.057,87.057,0,0,0-17.174-3.67c-4.149-.56-8.384-1.04-12.472-0.3a1.066,1.066,0,0,0-.515-0.05c-16.525,1.71-30.688,12.35-38.651,27.37-7.778,14.67-9.09,33.69-1.445,48.68,7.713,15.12,25.5,23.73,41.1,25.93,15.892,2.23,33.5-2.32,44.382-15.15,7.165-8.45,10.19-19.94,12.057-30.79C561.913,2607.55,562.424,2595.57,556.655,2585.24Zm1.252,26.25c-0.978,9.56-3.207,19.5-7.354,28.12-8.479,17.62-27.8,24.33-45.691,22.77-17.834-1.56-37.256-12.84-43.284-31.16-4.627-14.07-1.584-30.14,5.653-42.62a47.632,47.632,0,0,1,31.024-22.48,1.07,1.07,0,0,0,1.5.71c4.368-1.84,8.872-1.55,13.457-1.02a105.183,105.183,0,0,1,15.428,2.9c8.819,2.41,17.02,6.91,23,14.19C558.182,2590.86,558.928,2601.5,557.907,2611.49Z" transform="translate(-457.281 -2562.59)"/>
</svg>
